<svg width="19" height="5" viewBox="0 0 19 5" fill="none" xmlns="http://www.w3.org/2000/svg">
<path d="M9.5 3.33784C10.0672 3.33784 10.527 2.87802 10.527 2.31081C10.527 1.7436 10.0672 1.28378 9.5 1.28378C8.93279 1.28378 8.47297 1.7436 8.47297 2.31081C8.47297 2.87802 8.93279 3.33784 9.5 3.33784Z" stroke="#303030" stroke-width="2.5" stroke-linecap="round" stroke-linejoin="round"/>
<path d="M16.6892 3.33784C17.2564 3.33784 17.7162 2.87802 17.7162 2.31081C17.7162 1.7436 17.2564 1.28378 16.6892 1.28378C16.122 1.28378 15.6622 1.7436 15.6622 2.31081C15.6622 2.87802 16.122 3.33784 16.6892 3.33784Z" stroke="#303030" stroke-width="2.5" stroke-linecap="round" stroke-linejoin="round"/>
<path d="M2.31081 3.33784C2.87802 3.33784 3.33784 2.87802 3.33784 2.31081C3.33784 1.7436 2.87802 1.28378 2.31081 1.28378C1.7436 1.28378 1.28378 1.7436 1.28378 2.31081C1.28378 2.87802 1.7436 3.33784 2.31081 3.33784Z" stroke="#303030" stroke-width="2.5" stroke-linecap="round" stroke-linejoin="round"/>
</svg>
