<svg width="21" height="23" viewBox="0 0 21 23" fill="none" xmlns="http://www.w3.org/2000/svg">
<path d="M1.27778 5.36667L4.34444 1.27778H16.6111L19.6778 5.36667M1.27778 5.36667V19.6778C1.27778 20.22 1.49317 20.74 1.87658 21.1234C2.25999 21.5068 2.78 21.7222 3.32222 21.7222H17.6333C18.1756 21.7222 18.6956 21.5068 19.079 21.1234C19.4624 20.74 19.6778 20.22 19.6778 19.6778V5.36667M1.27778 5.36667H19.6778M14.5667 9.45556C14.5667 10.54 14.1359 11.58 13.3691 12.3468C12.6022 13.1137 11.5622 13.5444 10.4778 13.5444C9.39334 13.5444 8.35331 13.1137 7.5865 12.3468C6.81968 11.58 6.38889 10.54 6.38889 9.45556" stroke="#4A3526" stroke-width="2.5" stroke-linecap="round" stroke-linejoin="round"/>
</svg>
